<svg height="512" viewBox="0 0 512 512" width="512" xmlns="http://www.w3.org/2000/svg"><g><g><path d="m445.63 416h50.37v-352h-480v352h384.37" fill="#957856"/><path d="m413.63 384h50.37v-288h-416v288h320.37" fill="#57565c"/><g fill="#e0e0e2"><path d="m96 336h64a16 16 0 0 1 16 16v32a0 0 0 0 1 0 0h-96a0 0 0 0 1 0 0v-32a16 16 0 0 1 16-16z"/><path d="m389 326h16a8 8 0 0 1 8 8v120a0 0 0 0 1 0 0h-32a0 0 0 0 1 0 0v-120a8 8 0 0 1 8-8z" transform="matrix(.707 -.707 .707 .707 -159.493 394.95)"/></g></g><g><path d="m496 56h-480a8 8 0 0 0 -8 8v352a8 8 0 0 0 8 8h381.06l28.22 28.23a8.015 8.015 0 0 0 11.32 0l22.63-22.63a8.03 8.03 0 0 0 2.34-5.6h34.43a8 8 0 0 0 8-8v-352a8 8 0 0 0 -8-8zm-65.06 379.25-79.19-79.19 11.31-11.31 79.19 79.19zm-90.51-67.88 8.63 8.63h-165.06v-24a24.032 24.032 0 0 0 -24-24h-64a24.032 24.032 0 0 0 -24 24v24h-16v-272h400v272h-39.06l-42.57-42.57a16.006 16.006 0 0 0 -22.62 0l-11.32 11.32a16.006 16.006 0 0 0 0 22.62zm-172.43-15.37v24h-80v-24a8.011 8.011 0 0 1 8-8h64a8.011 8.011 0 0 1 8 8zm320 56h-39.06l-16-16h31.06a8 8 0 0 0 8-8v-288a8 8 0 0 0 -8-8h-416a8 8 0 0 0 -8 8v288a8 8 0 0 0 8 8h317.06l16 16h-357.06v-336h464z"/><path d="m269.858 183.077a30.2 30.2 0 0 1 -4 5.8c-25.712 30.854-23.329 57.74-12.525 72.612 11.42 15.718 32.476 20.4 53.642 11.937 6.317-2.526 11.038-2.639 14.031-.333 8.264 6.366 8.324 29.644 7.06 39.913a8 8 0 0 0 6.946 8.93 8.1 8.1 0 0 0 1 .063 8 8 0 0 0 7.928-7.009c.518-4.145 4.551-40.893-13.154-54.558-5.358-4.137-14.867-7.818-29.755-1.862-14.14 5.656-27.783 3.113-34.755-6.485-7.265-10-7.962-29.166 11.872-52.966 8.46-10.152 10.456-18.609 5.928-25.137-5.368-7.741-18.252-12.81-75.653 2.377-29.9 7.911-58.775 17.988-59.064 18.088a8 8 0 0 0 5.286 15.1c.261-.092 26.437-9.227 54.5-16.819 42.455-11.483 56.561-10.593 60.713-9.651z"/><path d="m122.343 211.343-8 8a8 8 0 0 0 11.314 11.314l8-8a8 8 0 0 0 -11.314-11.314z"/></g></g></svg>